<svg width="570" height="578" viewBox="0 0 570 578" fill="none" xmlns="http://www.w3.org/2000/svg">
<g id="Group 5">
<g id="Group 4">
<g id="peep-18">
<g id="body/Fur Jacket">
<path id="&#240;&#159;&#142;&#168; Background" fill-rule="evenodd" clip-rule="evenodd" d="M280.58 499.818C282.544 502.784 286.407 502.328 288.065 500.031C306.95 504.404 326.31 502.68 345.457 501.608C399.413 499.426 453.673 506.266 507.411 499.111C513.111 497.978 519.746 498.519 524.41 494.589C531.871 485.9 530.264 472.707 529.075 462.123C519.55 402.463 506.007 342.256 499.251 282.212C498.874 276.493 501.245 269.386 503.371 264.01C503.896 263.01 507.215 262.029 508.937 260.876C514.222 257.105 513.365 250.348 508.784 246.383C493.949 235.989 473.299 239.621 457.562 243.456C454.546 232.197 451.156 224.793 445.414 224.059C434.486 222.664 407.974 218.399 399.808 224.059C395.902 226.767 393.394 236.31 390.582 240.958C370.073 240.596 328.449 213.323 319.891 244.035C312.939 244.512 306.052 250.545 307.382 257.785C298.365 265.705 305.477 277.58 305.353 287.438C304.167 308.353 292.781 327.057 288.044 347.261C277.216 386.447 264.961 457.725 278.39 495.974C278.101 495.825 277.47 496.05 277.879 496.368C279.4 496.795 279.598 498.699 280.58 499.818Z" fill="white"/>
<path id="&#240;&#159;&#150;&#141; Ink" fill-rule="evenodd" clip-rule="evenodd" d="M516.369 489.853C513.85 469.754 512.099 445.491 512.079 425.225C512.077 423.316 515.056 423.319 515.058 425.225C515.078 445.491 516.83 469.754 519.349 489.853C519.586 491.742 516.603 491.719 516.369 489.853M497.71 365.233C493.818 367.598 488.707 365.957 484.856 364.391C483.102 363.677 483.874 360.814 485.647 361.535C488.579 362.727 492.863 364.483 495.957 362.82C499.045 361.16 499.184 356.594 499.207 353.581C499.222 351.673 502.201 351.675 502.187 353.581C502.156 357.68 501.604 362.865 497.71 365.233M490.506 457.208C486.58 455.207 483.229 452.472 480.533 449.001C479.361 447.491 481.95 446.018 483.106 447.506C485.479 450.561 488.571 452.898 492.01 454.651C493.719 455.521 492.209 458.076 490.506 457.208M471.633 353.852C464.895 380.687 460.374 408.002 458.158 435.573C457.707 441.17 457.391 446.76 457.212 452.354C457.033 453.812 456.862 455.274 456.702 456.737C456.095 462.267 455.629 467.887 455.67 473.454C455.689 475.953 455.767 478.44 455.938 480.931C455.64 480.099 455.365 479.262 455.097 478.429C454.549 476.723 454.188 474.953 453.629 473.258C453.167 471.855 452.572 470.511 452.017 469.153V469.149C452.184 463.585 451.804 457.969 451.611 452.431C451.361 445.257 451.052 438.091 450.892 430.913C450.572 416.557 450.732 402.19 451.253 387.842C452.3 358.931 454.944 330.157 457.611 301.363C458.352 293.356 459.149 285.353 459.7 277.331C460.255 269.224 460.478 261.102 460.542 252.973C460.545 252.388 459.651 252.233 459.488 252.799C459.342 250.87 459.085 248.945 458.657 247.083C465.082 251.155 471.856 254.676 478.497 258.378C481.994 260.329 485.476 262.313 489.081 264.06C491.063 265.022 493.063 265.907 495.104 266.744C497.219 267.61 499.241 268.802 501.569 268.198C501.77 268.147 501.96 268.073 502.143 267.977C501.878 268.476 501.614 268.972 501.36 269.476C500.481 271.212 499.644 272.955 498.832 274.714C498.616 274.873 498.426 275.092 498.277 275.376C497.882 276.143 497.498 276.916 497.126 277.701C497.051 277.631 496.977 277.561 496.902 277.49C496.59 277.198 496.158 277.638 496.433 277.957C496.56 278.101 496.683 278.242 496.806 278.386C494.377 283.58 492.403 289.04 490.37 294.371C487.871 300.923 485.502 307.523 483.271 314.168C478.873 327.239 474.992 340.481 471.633 353.852M375.31 451.238C362.893 457.847 351.289 465.746 340.129 474.266C338.607 475.427 337.125 472.853 338.625 471.709C349.785 463.189 361.389 455.29 373.806 448.68C375.498 447.78 377.001 450.337 375.31 451.238M333.37 373.826C332.725 373.778 332.097 373.406 331.934 372.739C330.928 368.645 330.14 364.186 331.076 360.011C331.493 358.148 334.364 358.941 333.948 360.798C333.211 364.09 333.797 367.649 334.563 370.932C345.393 371.403 356.078 367.541 366.439 364.947C368.303 364.48 369.09 367.337 367.231 367.802C356.24 370.554 344.871 374.672 333.37 373.826M548.972 483.016C548.984 482.99 548.995 482.96 549.002 482.934C549.639 481.017 549.654 478.788 549.725 476.779C549.848 473.202 549.717 469.619 549.393 466.054C548.708 458.551 547.233 451.169 545.472 443.85C541.982 429.354 537.051 415.25 534.373 400.558C529.118 371.717 530.366 341.687 520.053 313.868C515.766 302.304 509.643 291.187 501.323 281.999C501.93 280.163 502.522 278.323 503.1 276.476C504.109 273.263 505.141 269.946 505.763 266.636C505.778 266.548 505.796 266.455 505.807 266.363C509.349 264.845 512.571 261.983 513.122 258.178C513.36 256.534 513.085 254.713 512.37 253.125C513.83 251.785 514.768 250.045 514.545 247.713C514.128 243.322 508.969 242.193 505.379 241.334C501.297 240.361 497.063 240.091 492.888 240.55C490.78 240.779 488.694 241.164 486.657 241.742C484.888 242.241 482.962 242.756 481.543 243.963C481.376 244.103 481.513 244.377 481.715 244.377C484.586 244.367 487.446 243.319 490.348 243.181C493.387 243.041 496.418 243.289 499.398 243.911C502.31 244.518 505.215 245.406 507.863 246.78C508.608 247.169 509.699 247.431 508.824 248.216C508.183 248.79 506.925 248.838 506.102 248.923C504.28 249.112 502.709 250.171 502.478 252.103C502.273 253.81 503.297 255.742 505.122 256.127C505.223 256.15 505.316 256.175 505.398 256.208C505.446 256.301 505.521 256.379 505.513 256.253C505.513 256.253 505.517 256.249 505.517 256.253C505.562 256.523 505.576 256.63 505.576 256.649C505.565 256.627 505.547 256.534 505.532 256.46C505.543 256.527 505.565 256.634 505.595 256.793C505.554 256.619 505.588 257.045 505.554 257.112C504.586 258.889 501.722 259.389 500.053 260.155C499.729 260.302 499.45 260.477 499.212 260.672C498.817 260.536 498.414 260.399 498.009 260.247C496.009 259.503 494.012 258.781 491.986 258.111C488.076 256.812 484.117 255.653 480.206 254.35C472.802 251.885 465.644 248.771 458.378 245.951C458.147 245.099 457.879 244.266 457.562 243.456C457.499 243.286 457.193 243.23 457.16 243.456C457.048 244.174 456.959 244.896 456.884 245.621C456.855 245.688 456.847 245.762 456.862 245.832C456.441 250.052 456.553 254.372 456.337 258.589C456.069 263.845 455.32 269.065 455.108 274.325V274.421C454.326 278.912 453.618 283.417 452.977 287.937C452.259 287.715 451.436 287.759 450.594 288.207C444.642 291.365 437.953 293.123 431.224 293.515C427.834 293.711 424.479 293.601 421.108 293.212C418.892 292.96 416.71 292.501 414.524 292.064C415.674 287.27 416.911 282.499 418.308 277.776C419.458 273.892 420.74 270.027 422.322 266.292C423.92 262.52 425.909 258.918 427.76 255.261C428.613 253.569 427.607 250.981 425.391 251.159C424.736 251.211 424.08 251.252 423.421 251.281C417.008 251.585 410.337 250.874 404.006 250.241C396.799 249.515 389.496 248.764 382.353 247.583C381.824 247.498 381.608 248.212 382.129 248.386C385.518 249.519 388.867 250.8 392.341 251.648C395.917 252.525 399.514 253.325 403.142 253.95C406.617 254.547 410.107 255.046 413.607 255.468C415.89 255.746 418.2 255.886 420.497 256.071C417.403 260.987 415.268 266.532 413.41 271.993C411.023 279.004 409.269 286.219 407.552 293.419C403.879 308.852 400.852 324.441 398.483 340.125C396.785 351.371 395.41 362.662 394.379 373.982C394.073 370.543 393.701 367.115 393.28 363.691C391.872 352.322 389.816 341.028 387.068 329.904C387.314 329.475 387.429 328.96 387.347 328.461C386.852 325.403 385.548 322.741 384.405 319.906C383.269 315.945 382.044 312.01 380.725 308.104C379.228 302.785 377.548 297.547 375.399 292.431C373.757 288.533 371.884 284.734 369.798 281.051C367.306 275.902 364.569 270.864 361.563 266.048C361.407 265.6 361.154 265.182 360.792 264.83C360.245 263.971 359.69 263.123 359.124 262.283C358.755 261.735 357.698 262.068 357.977 262.764C358.107 263.09 358.238 263.416 358.372 263.738C346.13 260.695 334.126 265.348 322.465 268.784C319.523 269.653 316.551 270.438 313.534 271.005C311.162 271.449 308.398 271.989 306.033 271.5C304.451 271.175 303.75 270.46 304.521 268.78C305.318 267.04 307.493 265.896 309.382 265.126C310.093 264.974 310.793 264.704 311.467 264.297C313.039 263.349 313.728 261.372 312.987 259.688C312.313 258.167 310.346 256.856 308.607 257.552C308.357 257.652 308.112 257.748 307.866 257.845C307.84 257.808 307.81 257.756 307.784 257.682C307.534 257.004 307.426 257.815 307.534 256.845C307.713 255.261 309.4 253.821 310.555 252.914C313.426 250.652 317.575 248.979 321.281 249.834C321.56 249.897 321.84 249.974 322.115 250.071C325.933 251.385 327.791 245.921 324.741 243.885C324.555 243.763 324.32 243.607 324.063 243.426C322.793 242.549 320.934 241.072 321.441 239.739C322.067 238.084 325.758 237.133 327.154 236.57C332.204 234.534 337.661 233.379 343.106 233.142C348.584 232.905 354.133 233.505 359.418 234.974C362.01 235.693 364.673 236.785 367.124 237.888C369.325 238.876 374.114 240.183 374.42 242.952C374.487 243.563 375.362 243.77 375.552 243.104C377.053 237.788 371.228 234.356 367.385 232.161C364.863 230.717 362.003 229.818 359.236 228.933C356.584 228.082 353.876 227.456 351.113 227.078C345.18 226.272 339.176 226.375 333.292 227.508C327.933 228.541 321.97 230.303 317.638 233.731C314.979 235.834 313.776 239.18 314.845 242.445C314.882 242.552 314.92 242.663 314.957 242.771C310.171 243.622 305.642 246.347 302.614 250.145C300.127 253.265 298.823 257.608 301.05 261.24C300.957 261.306 300.864 261.376 300.775 261.45C298.652 263.138 297.073 265.589 296.603 268.269C295.683 273.555 298.898 277.253 303.393 278.667C302.279 279.749 301.21 280.896 300.164 282.043C297.821 284.616 295.583 287.418 293.609 290.276C289.609 296.066 286.19 302.37 283.199 308.723C277.051 321.768 273.173 335.809 271.118 350.046C270.082 357.22 269.39 364.431 269.125 371.672C268.82 379.927 269.129 388.186 268.969 396.445C268.812 404.382 267.93 412.126 266.146 419.863C264.436 427.263 262.157 434.515 260.094 441.818C257.766 450.044 255.204 458.232 253.974 466.713C253.353 471.029 252.906 475.357 253.252 479.721C253.602 484.167 255.226 487.969 256.723 492.104C257.103 493.159 258.261 493.585 259.189 493.359C259.397 495.339 260.149 497.272 261.27 498.945C263.65 502.491 267.315 504.753 271.512 505.575C276.242 506.497 281.118 506.278 285.907 506.108C291.102 505.923 296.302 505.756 301.497 505.542C306.937 505.318 312.376 505.089 317.815 504.858C317.635 499.317 317.421 493.778 317.178 488.239C315.867 458.297 313.802 428.337 313.747 398.356C313.641 398.295 313.538 398.222 313.439 398.126C310.99 395.774 307.984 394.229 305.159 392.387C303.561 391.345 305.055 388.782 306.663 389.83C309.045 391.383 311.526 392.762 313.758 394.501C313.771 391.38 313.798 388.26 313.86 385.138C313.898 383.232 316.878 383.232 316.84 385.138C316.653 394.545 316.716 403.954 316.93 413.36C317.623 443.84 319.802 474.263 320.794 504.732C335.393 504.112 349.993 503.487 364.595 502.957C376.472 502.528 388.349 502.099 400.226 501.669C402.717 501.581 404.118 499.811 404.423 497.497C404.982 493.24 403.932 488.839 401.555 485.259C401.31 484.889 401.019 484.56 400.695 484.278C400.751 481.728 400.855 479.173 400.71 476.623C400.494 472.729 400.17 468.834 399.887 464.944C399.313 457.151 398.87 449.344 398.695 441.533C398.338 425.911 398.598 410.275 399.488 394.675C401.272 363.51 405.425 332.544 412.222 302.059C412.717 299.838 413.216 297.617 413.734 295.4C419.019 298.128 425.447 299.109 431.224 299.146C438.464 299.19 445.544 297.535 452.084 294.526C452.039 294.863 451.994 295.196 451.953 295.533C450.128 309.97 448.59 324.436 447.249 338.922C444.575 367.8 442.937 396.797 443.164 425.804C443.227 433.841 443.536 441.852 443.92 449.877C444.311 458.04 444.911 466.665 447.197 474.539C447.451 475.408 448.013 475.908 448.661 476.09C448.694 477.237 448.769 478.389 448.851 479.521C449.115 483.205 449.871 490.856 451.488 494.195C453.063 497.453 455.689 500.037 459.037 501.459C463.29 503.261 467.89 502.743 472.381 502.454C491.912 501.188 511.427 499.493 530.947 498.005C533.665 497.797 536.384 497.594 539.099 497.383C541.516 497.198 544.015 497.034 546.161 495.787C548.6 494.369 550.503 487.406 549.661 484.526C549.509 484.001 549.278 483.482 548.972 483.016" fill="black"/>
</g>
<g id="head/Short 4">
<path id="&#240;&#159;&#142;&#168; Background_2" fill-rule="evenodd" clip-rule="evenodd" d="M492.757 119.882C492.632 115.455 486.155 113.617 484.283 118.001C484.167 118.119 484.041 118.232 483.922 118.333C484.508 117.833 483.283 118.66 483.084 118.762C482.913 118.849 482.739 118.928 482.565 119.01C481.361 107.795 477.275 95.7057 466.716 90.0767C451.988 82.9781 434.97 81.5925 418.813 82.2977C410.628 82.7804 401.177 84.0812 393.905 79.9655C391.639 78.6832 389.822 76.6646 387.262 75.872C379.179 73.6987 375.513 81.9486 376.614 88.733C373.166 88.76 369.746 90.6572 368.258 93.7808C367.384 95.6295 367.4 97.6244 366.646 99.4797C364.335 104.185 361.027 107.567 362.897 113.271C359.608 116.991 361.483 122.623 364.137 126.184C365.448 128.037 367.009 129.815 367.969 131.889C368.901 133.874 367.494 136.228 366.711 138.11C360.923 151.751 361.254 166.774 364.368 181.002C358.119 183.697 356.243 192.123 360.319 197.428C361.721 199.303 363.431 199.999 365.371 201.153C367.826 202.496 365.821 207.875 366.608 210.473C367.676 216.816 373.486 220.721 379.23 216.603C382.876 216.055 385.816 226.597 388.463 229.243C390.094 231.375 391.905 233.29 393.874 235.057C399.74 250.058 429.797 257.666 444.658 256.797C460.22 255.178 470.719 242.041 479.461 230.383C483.95 224.171 486.869 217.218 487.931 209.635C488.998 202.013 488.531 194.378 487.81 186.748C486.295 170.535 483.906 147.178 482.363 130.791C487.939 130.334 492.927 125.615 492.757 119.882V119.882Z" fill="white"/>
<path id="Fill 4" fill-rule="evenodd" clip-rule="evenodd" d="M371.199 110.135C371.194 110.158 371.202 110.175 371.207 110.2C371.208 110.193 371.209 110.189 371.211 110.18C371.207 110.162 371.204 110.15 371.199 110.135" fill="#4F66AF"/>
<path id="Fill 6" fill-rule="evenodd" clip-rule="evenodd" d="M371.198 110.37C371.177 110.349 371.148 110.333 371.119 110.312C371.119 110.312 371.118 110.313 371.118 110.314C371.145 110.332 371.171 110.352 371.198 110.37" fill="#4F66AF"/>
<path id="&#240;&#159;&#150;&#141; Ink_2" fill-rule="evenodd" clip-rule="evenodd" d="M491.871 121.977C493.702 120.464 496.587 121.857 495.967 124.347C495.292 127.059 492.367 128.912 489.953 130.027C487.468 131.173 485.048 131.394 482.337 131.269L482.303 131.261V131.261C483.056 134.261 483.483 137.379 484.059 140.397C484.789 144.225 485.508 148.056 486.216 151.888C486.901 155.592 487.767 159.301 488.293 163.023C488.824 166.781 489.333 170.541 489.855 174.3C490.725 180.578 491.427 186.885 492.168 193.181L492.521 196.161C493.263 202.469 493.86 208.784 492.454 215.061C491.137 220.944 488.169 226.432 484.727 231.343C481.356 236.151 477.591 240.775 473.457 244.958C465.484 253.024 455.651 259.485 444.122 260.683C439.158 261.199 433.856 260.625 429.189 258.832L428.879 258.711C424.155 256.858 418.37 253.683 417.14 248.474C416.385 245.279 419.698 242.784 422.603 244.3C423.948 245.003 424.96 245.806 426.065 246.812L426.261 246.992C427.164 247.826 427.511 248.082 428.553 248.734C430.69 250.07 432.291 250.702 434.718 251.309C439.192 252.428 444.021 252.251 448.563 250.928C458.207 248.119 465.689 240.789 472.098 233.44C475.578 229.449 478.881 225.262 481.429 220.611C484.102 215.731 485.335 210.607 485.261 205.055C485.178 198.789 484.306 192.499 483.735 186.264C483.152 179.907 482.614 173.552 482.139 167.186C481.695 161.216 481.652 155.219 481.496 149.23L481.466 148.107C481.375 144.928 481.311 141.748 481.239 138.568C481.167 135.398 480.914 132.187 481.243 129.029C481.266 128.799 481.578 128.741 481.654 128.974C481.848 129.565 482.017 130.166 482.177 130.77C482.202 130.752 482.229 130.735 482.263 130.724C484.387 129.998 486.344 128.55 487.938 126.987C489.459 125.497 490.253 123.313 491.871 121.977ZM375.642 77.5558C376.977 72.1082 382.982 70.8914 387.422 73.5149C389.558 74.7765 391.269 76.596 393.264 78.0419C395.247 79.4797 397.439 80.6343 399.753 81.4498C404.348 83.0697 409.196 83.6587 414.053 83.6798C425.874 83.7312 437.453 80.4292 449.292 80.7975C458.452 81.0826 468.175 83.7734 474.819 90.3553C478.399 93.9009 480.705 98.4593 481.943 103.299C482.521 105.561 482.952 107.877 483.292 110.188L483.375 110.766C483.565 112.117 483.871 113.547 483.899 114.912C483.925 116.138 483.613 117.421 483.444 118.635C483.087 121.193 479.101 120.901 478.528 118.635C477.224 113.474 477.77 108.148 476.176 103.005C474.762 98.4442 472.023 94.4566 468.054 91.7294C451.31 80.2241 429.837 89.8589 411.388 88.9638C406.879 88.745 402.304 88.0524 398.051 86.5091C395.857 85.7132 393.698 84.7426 391.71 83.5217C389.888 82.4039 388.309 80.9994 386.623 79.7069L385.879 79.1449C384.723 78.2803 382.754 76.9286 381.588 78.0722C381.08 78.5701 381.05 79.6957 381.059 80.5553L381.065 80.9438C381.118 84.593 381.866 88.2356 380.492 91.7613C379.865 93.3694 378.123 94.3833 376.467 93.4726L376.381 93.4237C372.877 91.3517 368.273 95.5153 370.965 98.9611L371.048 99.0653C372.563 100.895 371.755 104.117 369.045 104.109L368.947 104.107C364.117 103.957 361.975 109.956 366.137 112.578L366.266 112.656C369.645 114.667 366.681 119.5 363.217 117.841C363.51 117.981 363 117.979 362.708 118.369C362.428 118.743 362.407 119.066 362.473 119.539C362.676 120.97 363.942 122.176 364.968 123.081C367.298 125.138 370.186 126.559 373.162 127.424C385.084 130.888 397.314 126.65 408.93 124.091C421.04 121.423 434.717 120.349 445.278 127.919C445.403 128.009 445.293 128.209 445.154 128.129C437.575 123.754 428.293 124.143 420.008 125.936C409.144 128.288 398.375 132.666 387.249 133.82C390.372 139.301 391.679 145.774 390.845 152.043C390.271 156.359 388.543 160.102 386.502 163.896L386.112 164.618C384.293 168.023 382.883 171.24 382.861 175.185C382.839 179.104 376.977 179.93 375.984 176.11C373.728 167.435 381.946 160.602 385.299 153.448C388.165 147.332 388.253 140.202 385.934 133.941C383.317 134.15 380.68 134.172 378.016 133.935C375.728 133.732 373.375 133.322 371.08 132.674L370.163 136.509C368.947 141.617 367.82 146.722 367.479 152.028C367.227 155.927 367.241 159.845 367.623 163.734C367.954 167.093 368.652 170.332 369.362 173.612C369.971 174.411 370.283 175.633 370.111 176.607C374.067 177.739 377.178 180.841 378.314 184.95C378.383 185.2 378.031 185.341 377.899 185.124C375.203 180.677 368.258 179.04 363.865 181.978C359.67 184.783 358.015 190.447 360.39 194.931C361.639 197.288 363.491 198.945 365.879 200.086L366.359 200.31C367.61 200.899 368.759 201.54 369.564 202.722C370.608 204.255 370.643 205.876 370.544 207.628L370.502 208.339C370.436 209.513 370.421 210.722 370.773 211.852L370.853 212.103C370.946 212.385 371.043 212.633 371.213 212.902C371.263 212.982 371.738 213.446 371.893 213.613L372.089 213.672V213.672L372.307 213.681V213.681C372.549 213.684 372.867 213.58 372.763 213.652L372.791 213.636C372.883 213.579 372.968 213.519 373.039 213.466L373.174 213.361C373.49 212.907 373.886 212.531 374.372 212.245L374.837 212.04V212.04C376.043 210.774 378.11 211.439 378.975 212.7C379.597 213.607 379.932 214.529 379.96 215.439C380.057 215.284 380.273 215.199 380.41 215.372L381.23 216.411C384.367 220.395 387.451 224.404 391.015 228.036C392.979 230.037 395.092 231.918 397.3 233.65C399.185 235.129 402.761 236.552 402.816 239.246C402.833 240.12 402.208 240.739 401.444 241.036C398.957 242.002 395.883 238.717 394.087 237.118L393.94 236.989C391.741 235.075 389.735 232.974 387.883 230.727C384.286 226.362 381.279 221.338 379.953 215.812C379.891 216.776 379.475 217.721 378.664 218.613C377.585 219.8 376.109 220.632 374.531 220.975C370.958 221.751 367.469 220.473 365.343 217.513C363.546 215.011 363.016 211.707 363.248 208.684L363.277 208.322C363.309 207.837 363.351 206.947 363.477 206.569L362.352 205.955V205.955C360.973 205.225 359.694 204.268 358.546 203.217C353.935 198.991 351.621 192.123 353.729 186.113C355.048 182.354 357.819 179.082 361.368 177.382C360.775 176.02 360.576 174.402 360.352 172.97L360.315 172.733C359.935 170.385 359.618 168.007 359.497 165.63C359.27 161.192 359.545 156.712 360.247 152.325C361.387 145.199 363.746 137.642 368.071 131.664C364.771 130.362 361.735 128.477 359.39 125.859C356.941 123.123 355.379 119.207 357.274 115.732C357.756 114.847 358.385 114.103 359.108 113.511C357.855 111.158 357.449 108.378 358.222 105.72C359.147 102.542 361.657 100.064 364.689 98.9065C363.952 95.8958 364.554 92.6575 366.804 90.1484C369.036 87.6593 372.501 86.7527 375.709 87.3216C375.883 84.1196 374.868 80.7139 375.642 77.5558ZM366.646 189.98C369.587 188.55 373.072 188.777 376.01 190.133L376.209 190.227C379.416 191.773 383.663 195.384 382.644 199.225C382.047 201.471 379.536 202.238 377.589 201.269C375.963 200.458 375.592 199.01 374.776 197.555C374.199 196.526 373.486 195.721 372.648 194.894C370.882 193.151 368.899 191.856 366.646 190.82C366.321 190.67 366.333 190.133 366.646 189.98ZM440.744 112.342C440.468 112.217 440.668 111.788 440.946 111.866C448.335 113.964 455.225 118.672 459.342 125.207C459.593 125.605 459.631 126.262 459.342 126.656L459.208 126.835C459.02 127.08 458.833 127.261 458.478 127.316C457.811 127.419 457.231 127.246 456.847 126.656C452.791 120.428 447.595 115.457 440.744 112.342ZM490.212 113.576C490.839 112.522 492.498 112.734 492.829 113.915L492.877 114.018C493.055 114.421 492.974 114.503 492.641 114.276C493.465 114.95 493.838 115.955 493.586 117.035C492.226 122.869 485.578 127.035 479.782 126.462C479.276 126.412 479.207 125.794 479.665 125.609C481.895 124.712 483.874 123.255 485.466 121.466C487.013 119.728 487.663 117.739 488.495 115.64C488.807 114.852 489.293 114.284 489.977 113.974C490.068 113.85 490.147 113.717 490.212 113.576ZM457.253 109.826L457.293 109.829C460.271 110.211 462.847 111.672 464.938 113.812C466.953 115.874 469.494 119.275 469.277 122.3C469.132 124.305 466.264 125.451 465.194 123.399C464.555 122.174 464.41 120.832 463.963 119.537C463.552 118.35 462.985 117.224 462.307 116.167C460.91 113.989 458.989 112.145 457.022 110.48C456.791 110.286 456.952 109.827 457.253 109.826V109.826ZM380.872 108.938C380.212 108.313 380.899 107.247 381.739 107.458C386.168 108.573 390.554 109.929 395.16 110.063C397.46 110.13 399.747 109.95 402.025 109.654L403.179 109.502C404.956 109.272 406.763 109.091 408.52 109.453C409.691 109.695 409.919 111.194 409.19 111.977C405.744 115.671 399.099 115.317 394.529 114.695C389.567 114.018 384.561 112.43 380.872 108.938ZM460.858 97.4234C460.555 97.0055 461.065 96.3458 461.548 96.5313C465.95 98.2223 470.563 102.625 471.776 107.231C472.096 108.448 470.552 109.367 469.646 108.463C467.956 106.78 466.764 104.792 465.336 102.9C463.913 101.014 462.248 99.3388 460.858 97.4234ZM388.735 99.4805C388.382 99.13 388.738 98.4318 389.245 98.6102C392.111 99.619 394.998 100.492 398.009 100.95C401.093 101.418 404.205 101.062 407.305 101.252C408.559 101.329 409.413 103.268 408.019 103.871C401.825 106.552 393.412 104.121 388.735 99.4805ZM396.648 93.4682C396.156 93.1061 396.436 92.1126 397.106 92.3898C399.835 93.5193 402.595 93.7969 405.524 93.6807C406.606 93.6373 406.834 95.3272 405.779 95.5553C402.542 96.2553 399.294 95.4124 396.648 93.4682Z" fill="black"/>
</g>
<g id="face/Loving Grin 1">
<path id="&#240;&#159;&#150;&#141; Ink_3" fill-rule="evenodd" clip-rule="evenodd" d="M427.537 216.509C427.575 212.43 431.131 211.727 434.509 212.271C440.228 213.19 445.968 213.837 451.764 213.954L452.763 213.971V213.971C452.924 213.738 453.193 213.561 453.558 213.522C456.771 213.177 460.053 213.233 463.284 213.139C466.102 213.056 468.998 212.776 471.816 212.996L472.04 213.016C475.484 213.347 479.118 215.094 478.703 219.111C478.32 222.831 474.742 226.125 471.886 228.192C471.308 228.606 470.717 228.994 470.109 229.348C469.919 229.59 469.64 229.758 469.319 229.793C466.506 231.303 463.401 232.197 460.188 232.494C453.376 233.124 445.456 232.442 438.912 229.508C436.785 228.554 434.801 227.363 433.047 225.9C430.342 223.643 427.506 220.221 427.537 216.509ZM454.378 224.596C451.647 224.515 448.921 224.894 446.32 225.732C444.557 226.297 442.95 227.384 441.261 228.14C446.954 230.298 453.567 230.768 459.406 230.375C461.968 230.203 464.452 229.616 466.766 228.606C466.406 228.347 466.041 228.084 465.659 227.855C464.504 227.16 463.297 226.569 462.038 226.098C459.585 225.184 456.997 224.679 454.378 224.596ZM455.294 188.929C454.557 188.404 455.142 186.662 456.716 186.932C471.017 189.374 463.607 213.858 445.349 200.422C443.175 198.679 445.808 194.84 448.151 196.333L448.982 196.97C451.687 199.031 456.161 202.146 459.366 198.803C462.391 194.591 458.106 190.628 455.294 188.929ZM464.975 170.399C468.015 167.821 471.828 169.721 474.066 172.332L474.46 172.799C474.908 173.331 475.404 173.952 475.701 174.615C478.182 172.516 481.545 171.039 484.763 171.998C487.884 172.931 489.664 175.893 489.128 179.072C488.52 182.688 485.767 185.118 482.81 186.997L481.971 187.527C478.417 189.778 475.092 192.047 472.167 195.142C471.69 195.645 470.659 195.579 470.346 194.909L470.094 194.37V194.37L469.839 193.831C467.765 189.434 465.541 185.065 463.716 180.564C462.364 177.229 461.925 172.983 464.975 170.399ZM430.323 172.734L430.786 172.202C433.013 169.625 436.786 167.9 439.762 170.399C442.931 173.061 442.309 177.462 440.897 180.857C439.197 184.951 437.212 188.955 435.305 192.971L434.897 193.832C434.726 194.191 434.558 194.55 434.391 194.909C434.078 195.579 433.043 195.645 432.57 195.142C429.736 192.144 426.529 189.925 423.105 187.744L422.071 187.09C419.065 185.195 416.223 182.748 415.605 179.072C415.076 175.9 416.845 172.92 419.97 171.998C423.195 171.047 426.551 172.513 429.035 174.615C429.331 173.935 429.841 173.294 430.323 172.734V172.734ZM434.398 154.25C435.486 155.654 434.324 157.948 432.736 158.31C430.768 158.76 428.781 158.487 426.85 159.045C425.08 159.556 423.384 160.58 421.868 161.601C420.138 162.765 418.544 164.064 417.08 165.545C416.209 166.425 415.112 168.512 413.769 168.551C412.434 168.589 414.226 164.439 414.375 164.08C415.427 161.524 416.906 159.172 418.756 157.111C422.406 153.046 430.137 148.756 434.398 154.25ZM475.161 153.126L476.073 153.378C478.327 154.001 480.734 154.767 482.669 156.11L482.821 156.217L483.055 156.387C485.483 158.187 488.918 161.777 487.198 164.91C487.079 165.126 486.828 165.147 486.625 165.059C484.337 164.063 482.64 162.074 480.207 161.241L479.758 161.089C477.4 160.3 474.484 159.471 471.947 159.546C470.163 160.122 467.754 159.645 467.289 157.487L467.269 157.381L467.228 157.157C466.961 155.682 467.359 153.802 468.893 153.092C470.995 152.118 473.045 152.551 475.161 153.126Z" fill="black"/>
</g>
<g id="facial-hair/Full">
<path id="&#240;&#159;&#150;&#141; Ink_4" fill-rule="evenodd" clip-rule="evenodd" d="M422.114 226.994C425.129 219.972 431.71 214.812 439.288 212.925C444.852 211.543 450.691 211.588 456.363 212.136C459.335 212.421 462.523 212.655 465.323 213.752C467.715 214.689 469.664 216.461 471.129 218.54C472.874 221.004 474.06 223.824 474.893 226.715C475.012 227.126 475.123 227.539 475.227 227.956C474.864 230.137 474.095 231.993 472.063 233.364C470.08 234.703 467.713 235.25 465.355 235.445C465.123 235.335 464.9 235.221 464.695 235.105C461.019 233.013 458.432 228.071 453.792 228.739C449.652 229.337 446.926 234.515 444.464 237.551C436.56 238.467 428.662 236.106 422.231 231.614C421.905 230.076 421.886 228.526 422.114 226.994M480.599 221.667C479.966 219.904 479.17 218.196 478.226 216.587C475.105 211.266 470.315 207.026 464.628 204.602C451.175 198.877 433.768 202.913 422.904 212.303C419.192 215.513 415.44 220.23 414.305 225.304C413.966 225.37 413.646 225.546 413.383 225.793C405.534 220.881 397.45 216.155 391.125 209.346C386.532 204.398 383.337 198.544 381.38 192.11C381.22 191.58 380.361 191.658 380.387 192.244C380.394 192.381 380.402 192.518 380.409 192.655C380.328 192.403 379.941 192.532 379.911 192.777C378.858 200.592 377.542 208.879 378.754 216.735C379.48 221.423 381.622 224.855 384.486 228.56C387.554 232.533 391.028 236.227 394.58 239.77C396.834 242.019 399.189 244.614 401.948 246.263C405.158 248.179 408.8 249.635 412.225 251.114C415.71 252.622 419.247 254.015 422.851 255.223C430.056 257.647 437.502 259.322 445.079 260.056C451.145 260.641 458.078 261.279 463.891 259.011C468.347 257.273 471.944 254.13 474.797 250.35C477.902 246.233 480.358 241.543 481.715 236.598C483.125 231.461 480.896 222.496 480.599 221.667" fill="black"/>
</g>
</g>
</g>
<g id="peep-46">
<g id="body/Macbook">
<path id="&#240;&#159;&#142;&#168; Background_3" fill-rule="evenodd" clip-rule="evenodd" d="M425.723 324.599C420.405 325.118 415.087 325.636 409.769 326.155C384.299 328.09 358.839 332.129 333.564 334.553C332.934 333.535 331.703 333.703 330.955 334.41C328.433 334.191 325.606 332.275 323.321 334.268C323.247 334.258 323.173 334.245 323.098 334.238C319.03 326.478 316.219 318.201 313.49 309.913C311.748 304.818 309.404 299.885 305.074 296.464C297.683 291.364 280.749 281.024 272.071 281.459C271.927 279.914 271.203 278.322 270.014 277.294C272.635 272.852 262.154 269.954 261.415 270.469C261.888 255.629 254.865 242.742 239.38 239.786C225.506 236.913 205.774 236.43 198.312 250.841C197.492 250.749 189.108 250.706 188.297 250.796C187.036 249.209 173.185 264.254 178.862 269.491C128.109 291.807 99.2512 289.144 85.2037 351.879C83.3046 357.772 83.1663 364.221 81.161 369.983C74.0265 386.541 68.2397 404.174 66.7995 422.191C63.3212 423.077 62.9212 429.173 66.9502 430.055C68.4891 430.392 69.7761 430.852 70.8982 431.726C70.021 446.491 73.6138 480.22 75.8775 480.116C80.4933 494.717 101.082 498.838 115.658 493.706C113.145 498.405 115.658 501.36 115.658 503.87C168.107 505.842 225.454 504.707 277.889 507.411C284.596 507.317 291.651 509.049 298.266 508.052C302.301 507.091 302.308 500.785 298.215 500.006L316.097 496.145C315.697 495.995 323.468 490.858 329.341 481.258C334.807 470.519 331.087 457.556 333.564 445.875C352.909 444.302 372.575 443.63 391.709 440.373C394.318 448.132 405.612 438.853 409.202 435.12C409.197 435.114 409.193 435.109 409.188 435.103C410.926 434.631 412.319 433.012 412.365 431.096C413.584 429.366 413.839 426.927 412.671 425.255C418.026 394.542 426.19 363.183 429.141 332.18C430.184 331.951 431.166 331.496 431.999 330.796L431.932 330.729C433.343 329.165 433.617 326.466 431.265 325.138C429.367 324.065 427.783 324.398 425.723 324.599Z" fill="white"/>
<path id="&#240;&#159;&#150;&#141; Ink_5" fill-rule="evenodd" clip-rule="evenodd" d="M199.279 247.494C200.859 243.547 206.201 245.081 205.606 249.228C205.249 251.712 203.881 254.336 202.651 256.513C201.65 258.285 200.508 260.014 198.96 261.342C201.716 263.898 204.577 266.361 207.51 268.699C210.711 271.25 214.076 273.601 217.555 275.762C220.606 277.658 223.794 279.337 226.67 281.499C229.344 283.51 231.779 285.928 233.019 289.084C234.339 292.446 233.765 295.917 232.793 299.276L232.681 299.656C231.688 302.984 229.969 306.996 232.353 310.131C233.567 311.727 235.331 312.858 236.855 314.134C238.209 315.268 239.48 316.502 240.646 317.827C243.188 320.715 245.255 323.965 246.56 327.586L246.676 327.915C247.795 331.12 248.612 335.047 247.101 338.194C246.667 339.097 245.269 338.803 245.026 337.925C244.478 335.935 244.506 333.851 244.046 331.832C243.567 329.733 242.77 327.741 241.729 325.856C239.715 322.21 236.987 319.095 233.765 316.461L232.8 315.682C230.286 313.631 227.976 311.455 227.466 308.061C226.92 304.43 228.383 300.971 229.325 297.535C229.98 295.139 230.195 292.844 229.486 290.679C228.62 292.084 227.439 293.417 226.504 294.607C224.643 296.976 222.765 299.331 220.891 301.691C218.97 304.111 217.096 306.568 215.312 309.089C214.514 310.217 213.724 311.352 212.937 312.488C212.345 313.341 211.52 314.194 210.875 315.065C211.032 315.531 211.02 316.067 210.736 316.449C207.315 321.043 202.448 311.457 201.179 309.035C198.594 304.103 196.671 298.864 194.077 293.933C191.39 288.822 188.33 283.846 184.92 279.18C182.857 276.357 180.545 273.706 178.658 270.794C174.212 274.801 168.362 277.487 162.988 279.922C157.084 282.598 150.951 284.784 144.898 287.106L143.109 287.796C132.679 291.842 121.995 296.287 113.325 303.473C103.138 311.918 97.1115 323.688 92.6247 335.877C87.4598 349.909 83.1869 364.319 79.2037 378.721C77.1654 386.089 75.2313 393.491 73.4131 400.916C71.8109 407.458 70.4828 414.065 68.628 420.54C72.3896 420.408 76.6797 421.855 79.8912 422.273C94.5275 424.177 108.967 427.213 122.785 432.468C124.492 433.118 124.986 434.812 124.614 436.185C125.599 435.909 126.582 435.629 127.567 435.355C126.488 433.712 127.003 430.776 127.088 428.955L127.093 428.83C127.18 426.404 127.445 423.976 127.616 421.554C127.943 416.939 128.369 412.357 128.935 407.767L129.079 406.62C129.721 401.627 130.195 396.604 130.895 391.62L130.977 391.05C130.642 389.774 130.251 388.515 129.841 387.26C128.748 383.919 127.206 380.775 125.854 377.539C125.695 377.158 126.241 376.939 126.496 377.168C128.785 379.214 130.603 381.811 132.064 384.527C132.089 384.398 132.112 384.27 132.138 384.142L132.305 383.326C132.716 381.338 133.216 379.245 134.443 377.633C134.574 377.461 134.832 377.425 134.956 377.633C136.131 379.608 136.262 382.11 136.443 384.358C136.647 386.902 136.673 389.477 136.637 392.027C136.566 397.011 136.213 402.009 135.931 406.984C135.655 411.874 135.113 416.701 134.414 421.543L134.281 422.451C133.939 424.755 133.659 427.088 133.209 429.377L133.081 430C132.84 431.135 132.692 432.735 132.212 434.064C144.554 430.643 156.915 427.299 169.299 424.015C178.25 421.64 187.21 419.302 196.166 416.948C196.639 416.101 197.227 415.311 197.962 414.604C200.381 412.275 203.588 411.236 206.529 413.028C206.768 413.175 206.788 413.547 206.529 413.688C205.966 413.994 205.401 414.308 204.846 414.635L210.224 413.188C214.244 412.105 218.312 410.752 222.426 409.997C230.004 406.28 238.154 403.589 246.137 400.93L247.078 400.614C251.165 399.229 255.393 397.679 259.616 396.911C262.707 396.349 266.336 397.027 267.58 400.175C269.154 401.206 270.634 402.417 272.063 403.609C273.097 404.47 274.087 405.386 275.094 406.277L275.28 406.439C276.103 407.149 276.755 407.625 276.957 408.755C277.061 409.338 276.688 410.128 275.964 410.05C273.748 409.814 271.945 407.261 270.442 405.736C269.281 404.558 268.11 403.339 267.05 402.044C266.433 402.378 265.586 402.318 265.192 401.578C263.153 397.739 257.566 400.399 254.475 401.309L250.047 402.612C247.833 403.264 245.619 403.92 243.41 404.587C237.338 406.42 231.296 408.471 225.168 410.154C225.716 410.753 225.641 411.818 224.6 412.224C219.803 414.094 214.542 415.061 209.559 416.345C206.413 417.156 203.269 417.972 200.126 418.793C199.587 419.66 199.199 420.642 199.036 421.785C198.436 425.987 199.593 430.834 200.72 434.898L200.89 435.505C201.816 438.772 203.179 442.777 206.015 444.84C206.707 445.344 207.589 445.694 208.477 445.773C214.029 442.933 219.581 440.092 225.135 437.258C226.165 436.732 227.115 437.443 227.346 438.289C229.305 437.97 231.259 437.466 233.039 436.866C236.03 435.856 238.365 433.931 241.168 432.599C246.593 430.023 252.133 433.187 256.99 435.593L258.11 436.14C260.288 437.19 264.819 439.208 265.865 436.335C266.875 433.556 263.679 430.585 261.615 429.335C259.155 427.843 256.29 427.045 253.51 426.38C251.922 426 250.315 425.691 248.698 425.464C246.864 425.208 244.97 425.246 243.205 424.655C242.327 424.362 242.192 422.977 243.205 422.748C245.923 422.133 249.167 422.804 252.003 423.489L253.486 423.852C256.343 424.549 259.229 425.424 261.831 426.814C263.724 427.826 265.722 429.362 267.027 431.243C268.16 430.196 269.571 430.232 271.04 430.62L271.838 430.84C273.154 431.203 274.222 431.452 275.503 431.201C275.674 430.275 275.848 429.348 276.034 428.421C277.86 419.309 279.863 410.232 282.072 401.204C285.884 385.631 290.294 370.229 295.266 354.985L295.765 353.461C296.912 349.974 297.835 346.176 299.684 342.972C301.432 339.944 304.234 338.199 307.562 337.275C311.339 336.226 315.308 335.678 319.161 334.97C320.021 334.812 320.883 334.662 321.743 334.507C321.016 333.202 320.473 331.721 319.985 330.584L319.899 330.388C318.849 328.008 317.905 325.585 316.994 323.15L316.313 321.318C314.668 316.909 312.97 312.573 310.658 308.449C308.223 304.109 304.994 300.56 300.968 297.624C292.761 291.636 282.868 288.581 274.907 282.182C274.581 281.92 274.999 281.472 275.33 281.637C280.705 284.322 286.508 286.147 292.099 288.333L293.202 288.765C297.621 290.507 302.109 292.402 305.934 295.221C310.198 298.365 313.557 302.269 316.081 306.911C318.569 311.488 320.161 316.61 321.916 321.498L322.385 322.8C323.093 324.753 323.825 326.7 324.663 328.601C325.328 330.11 326.569 331.832 327.133 333.556C328.677 333.289 330.221 333.023 331.766 332.766C365.235 327.212 399.079 323.948 432.998 322.994C434.325 322.956 435.011 324.215 434.815 325.365C431.56 344.497 428.668 363.694 425.494 382.84C424.108 391.196 422.695 399.546 421.249 407.891C420.517 412.12 419.67 416.332 418.976 420.566C418.416 423.986 418.009 427.432 417.047 430.773C416.185 433.768 414.861 436.656 412.687 438.941C410.344 441.404 407.073 442.597 403.781 443.16C395.423 444.59 386.85 445.174 378.425 446.126L333.566 451.199C334.222 457.121 334.271 462.951 333.97 468.943L333.798 472.214C333.658 474.844 333.491 477.479 333.111 480.083C332.634 483.349 331.131 486.114 328.917 488.554C326.884 490.794 324.414 492.706 322.011 494.538C319.517 496.44 316.94 498.275 314.008 499.451L313.628 499.602C311.055 500.6 306.23 502.146 302.714 501.581C303.173 503.87 304.063 506.331 303.274 508.595C302.908 509.647 301.525 510.172 300.677 509.277C298.998 507.503 298.867 505.161 298.469 502.847C298.055 500.439 297.698 498.023 297.381 495.601C296.768 490.918 296.291 486.192 296.146 481.469C295.996 476.619 296.054 471.762 296.317 466.917C296.452 464.429 296.619 461.943 296.937 459.47C297.073 458.416 297.211 457.361 297.37 456.309C297.427 455.926 297.491 455.544 297.56 455.163L293.534 455.615C287.36 456.3 281.184 456.919 274.966 457.015C274.23 457.026 273.663 456.693 273.293 456.207C272.899 456.846 272.212 457.303 271.228 457.299C262.546 457.267 254.46 454.445 246.563 451.119C242.583 449.442 238.664 447.627 234.677 445.964C230.956 444.413 226.978 443.305 223.347 441.557L213.805 446.532C213.735 446.777 213.646 447.008 213.55 447.202C212.929 448.462 211.704 449.146 210.453 449.661C209.252 450.156 208.009 450.31 206.797 450.185C199.561 453.954 192.323 457.72 185.08 461.477L177.835 465.23C163.401 472.7 149.024 480.293 134.499 487.587L133.429 488.122C128.412 490.623 123.025 493.157 117.458 495.048C117.359 496.449 117.421 497.811 117.539 499.294L117.568 499.617C117.734 501.369 118.089 503.564 116.675 504.812C115.94 505.46 114.626 505.463 114.126 504.485C113.218 502.711 114.033 499.915 114.321 497.988C114.423 497.303 114.547 496.599 114.731 495.915C108.348 497.804 101.772 498.72 95.2768 497.659C88.9529 496.628 84.055 492.668 80.1065 487.824C75.9393 482.713 72.9781 476.757 71.3893 470.371C69.5811 463.105 69.463 455.602 69.5055 448.159C69.5506 440.234 69.8455 432.269 70.8153 424.397C69.7528 424.149 68.5744 423.934 67.5007 424.008C66.9688 424.854 65.9372 425.21 65.005 425.1C62.9778 427.323 68.1197 429.594 69.7628 430.162C70.3334 430.36 70.2723 431.281 69.6142 431.253L69.1997 431.234C66.6607 431.099 64.0375 430.669 62.5447 428.323C61.3484 426.443 61.7078 424.216 63.1339 422.684C64.0758 413.832 66.3275 405.212 68.4232 396.577C70.4798 388.102 72.7669 379.681 75.1911 371.302L76.2778 367.552C80.0947 354.415 84.0842 341.172 89.3492 328.557C91.9782 322.258 95.0068 316.074 99.1122 310.582C102.939 305.462 107.457 301.081 112.65 297.339C122.332 290.363 133.692 286.147 144.854 282.131L145.353 281.952C151.138 279.872 156.908 277.768 162.626 275.514C167.683 273.522 172.528 270.995 177.562 268.972C177.398 268.677 177.24 268.379 177.088 268.077L176.995 268.155C176.979 268.168 176.963 268.18 176.946 268.191C176.44 268.54 175.695 268.369 175.278 267.977C174.1 266.873 174.499 265.646 175.285 264.501L175.387 264.355C176.349 263.016 177.207 261.601 178.094 260.213L178.65 259.345C180.14 257.027 181.705 254.694 183.691 252.778C184.611 251.891 185.618 251.226 186.685 250.732C186.594 250.54 187.394 250.148 187.621 250.345C191.001 249.115 194.891 249.373 198.576 249.712M331.396 451.444L326.695 451.975C321.525 452.56 316.352 453.125 311.178 453.685L299.941 454.899C299.912 455.536 299.834 456.158 299.82 456.639C299.747 459.118 299.692 461.599 299.64 464.078C299.536 469.049 299.65 474.025 299.98 478.986C300.299 483.793 300.719 488.601 301.372 493.376L301.506 494.331L301.583 494.833C302.116 494.884 302.64 495.135 303.075 495.653C304.026 496.781 307.467 495.684 308.811 495.209C311.022 494.427 313.103 493.106 315.024 491.782C316.9 490.488 318.589 488.98 320.212 487.392L321.54 486.086C322.861 484.781 324.183 483.392 324.992 481.75C326.09 479.525 326.232 476.793 326.554 474.369C326.95 471.387 327.422 468.406 327.92 465.44M194.952 420.148L194.465 420.275C176.755 424.952 159.072 429.768 141.308 434.238C132.517 436.451 123.684 438.503 114.883 440.674L113.458 441.028C106.514 442.772 99.4869 444.872 94.1696 449.878C93.9733 450.062 93.6884 449.779 93.8731 449.583C99.6038 443.519 107.754 440.952 115.58 438.727C117.026 438.316 118.475 437.914 119.922 437.505C109.279 433.734 98.4682 430.453 87.408 428.113C84.56 427.511 81.6789 427.068 78.8331 426.463C76.8484 426.041 74.9102 425.431 72.9465 424.925L71.4019 424.539L71.3814 429.391C71.3557 436.264 71.368 443.13 71.7207 450.002L71.7875 451.275C72.1991 458.922 72.8415 466.728 75.5717 473.938C77.7903 479.797 81.3266 485.317 85.9511 489.585C88.2911 491.744 90.8069 493.425 93.9167 494.255C96.8042 495.025 99.8295 495.116 102.798 494.91C117.036 493.923 129.71 486.235 142.077 479.871C162.307 469.46 182.539 459.054 202.789 448.684C202.241 448.312 201.726 447.883 201.257 447.401C198.541 444.614 197.109 440.798 196.168 437.103C195.167 433.169 194.568 428.953 194.498 424.892M220.718 452.702C220.897 452.607 221.104 452.726 221.112 452.927C221.175 454.464 220.32 455.981 219.682 457.365L219.614 457.513C218.838 459.229 217.989 460.921 217.11 462.587C215.354 465.915 213.529 469.208 211.625 472.454C207.795 478.985 203.538 485.24 198.508 490.926C197.371 492.211 195.502 490.564 196.232 489.181C199.747 482.514 203.846 476.219 208.065 469.979C210.177 466.854 212.288 463.727 214.421 460.617C215.31 459.319 216.212 458.026 217.137 456.752L217.695 455.99M430.755 326.812C412.983 327.345 395.233 328.497 377.546 330.303C361.097 331.982 344.708 334.216 328.412 337.002C325.008 337.584 321.609 338.19 318.213 338.82L316.177 339.2C312.781 339.84 308.632 340.104 305.609 341.907C302.421 343.808 301.56 347.781 300.499 351.057C299.252 354.91 298.037 358.774 296.854 362.647C292.159 378.025 287.869 393.537 284.043 409.151C282.144 416.902 280.458 424.696 278.683 432.474C277.105 439.386 275.364 446.219 273.546 453.061C273.77 452.888 274.045 452.756 274.377 452.686C283.407 450.776 292.626 449.946 301.791 448.891L302.678 448.788C312.16 447.68 321.642 446.58 331.129 445.519L393.944 438.498C397.648 438.084 401.617 438.028 405.222 437.04C411.352 435.359 412.788 428.548 413.817 423.124L413.848 422.96C416.948 406.571 419.416 390.039 422.308 373.608M275.007 434.009C272.569 433.849 269.231 431.629 267.381 431.789C268.352 433.408 268.79 435.256 268.231 437.229C266.673 442.72 259.627 439.879 256.234 438.202C253.451 436.826 250.765 435.142 247.684 434.498C244.194 433.768 241.83 435.148 238.882 436.738C236.46 438.043 233.823 438.981 231.111 439.466C229.669 439.725 228.299 439.752 226.932 439.651C226.85 439.718 226.757 439.78 226.651 439.835L225.928 440.212C229.198 440.361 232.529 441.364 235.573 442.283C238.727 443.234 241.823 444.381 244.902 445.553L247.932 446.711C255.405 449.555 263.141 452.256 271.228 452.233C271.81 452.231 272.286 452.391 272.661 452.652M261.363 416.805C263.772 416.513 265.996 416.826 267.921 418.385C270.243 420.265 271.803 423.383 275.141 423.587C276.114 423.647 276.34 425.007 275.373 425.291C272.888 426.023 270.877 424.687 269.184 422.952L268.046 421.77C266.373 420.048 264.83 418.717 261.992 418.82C258.952 418.931 255.907 419.629 252.887 419.984C249.466 420.386 246.045 420.729 242.613 421.024C242.454 421.038 242.427 420.789 242.576 420.752L246.42 419.801M259.037 407.015L259.435 406.976C262.933 406.638 266.133 406.625 269.257 408.496L269.857 408.856C272.674 410.558 275.74 412.563 277.502 415.318C277.79 415.77 277.314 416.3 276.831 416.185C273.445 415.377 270.97 412.908 268.123 411.06C264.928 408.987 261.627 409.329 257.983 409.651C254.455 409.963 250.93 410.391 247.436 410.976C244.154 411.525 240.862 412.391 237.546 412.667L237.547 412.66C237.168 412.66 236.952 412.094 237.338 411.903C240.703 410.233 244.6 409.442 248.26 408.679M365.317 372.646C364.979 371.038 366.969 370.293 367.891 371.568L368.087 371.837C370.079 374.55 372.96 377.954 372.814 381.404C374.565 381.442 376.38 382.5 377.063 384.07C377.378 384.797 377.485 385.658 377.415 386.55C379.007 386.672 380.743 387.711 381.716 388.723C383.329 390.399 383.457 392.768 382.299 394.727C379.776 398.998 374.265 400.551 369.612 400.898L369.446 400.91C364.64 401.24 357.715 401.151 354.42 397.052C351.241 393.099 354.754 389.899 358.357 388.161C357.419 387.31 356.933 386.089 357.39 384.802C358.192 382.54 361.023 381.666 362.622 380.093C364.572 378.176 365.861 375.546 365.347 372.796M367.958 376.122C367.428 378.411 366.126 380.505 364.313 382.164C363.62 382.799 362.861 383.364 362.055 383.849L361.958 383.905C361.243 384.304 359.485 385.052 359.62 385.947C359.759 386.868 362.624 388.308 363.404 388.309C363.582 388.309 363.683 388.584 363.501 388.664C362.086 389.286 360.851 389.552 359.467 388.895C358.543 389.833 357.645 390.804 356.755 391.766C355.182 393.469 355.721 395.266 357.579 396.534C360.565 398.571 365.104 398.521 368.589 398.373C372.095 398.224 375.844 397.447 378.583 395.125L378.703 395.022C380.191 393.706 381.551 391.475 379.271 390.208C378.378 389.712 377.414 389.741 376.566 389.5C375.773 391.045 374.486 392.283 372.916 392.522C371.647 392.715 370.773 391.129 371.927 390.371L372.187 390.211C373.636 389.291 374.873 387.875 374.84 386.031C374.818 384.75 373.019 383.133 371.847 384.336L371.793 384.394C370.813 385.492 369.085 384.108 369.73 382.89L369.761 382.835M139.239 312.458C139.235 312.183 139.624 312.08 139.76 312.318C142.036 316.299 143.226 321.178 144.439 325.564C145.709 330.158 146.734 334.799 147.655 339.473C149.521 348.939 150.515 358.351 150.582 367.998C150.591 369.376 148.334 369.742 148.113 368.331C146.647 358.946 145.242 349.552 143.764 340.17C143.021 335.452 142.156 330.751 141.328 326.046M161.775 319.392C161.607 318.843 162.411 318.659 162.616 319.161C167.185 330.307 168.732 342.938 165.799 354.697C165.35 356.496 162.699 355.717 163.038 353.941M220.7 309.488C220.677 309.077 221.214 309.012 221.416 309.295C223.581 312.326 224.479 316.386 228.276 317.953C230.172 318.735 232.306 318.599 233.981 319.92C235.101 320.804 235.96 322.198 235.119 323.537C234.848 323.969 234.089 324.186 233.721 323.716C233.184 323.031 232.9 322.212 232.17 321.699C231.141 320.975 229.754 320.93 228.574 320.59C227.048 320.15 225.702 319.381 224.601 318.237M256.863 258.927C257.086 258.814 257.3 258.886 257.443 259.078C257.647 259.351 257.622 259.617 257.372 259.804C257.705 260.481 258.099 262.177 258.155 262.424C258.383 263.425 258.626 264.42 258.879 265.415C259.391 267.42 259.839 269.441 260.352 271.447C260.895 273.573 261.541 275.677 262.261 277.75C262.308 277.885 262.359 278.022 262.412 278.161L262.495 278.371L262.515 278.339C262.661 278.109 262.966 278.27 262.93 278.512C262.896 278.734 262.851 278.954 262.813 279.175L262.888 279.374C263.359 280.634 263.682 281.96 262.818 283.072C262.495 283.488 262.139 283.734 261.696 283.807C260.985 286.136 260.093 288.421 259.139 290.615L258.859 291.256C257.455 294.458 255.957 297.618 253.722 300.344C251.281 303.321 247.923 305.353 245.797 308.614C244.808 310.131 244.12 311.726 243.561 313.44L243.351 314.09C242.954 315.302 242.497 316.476 241.353 317.187C240.988 317.414 240.442 317.341 240.147 317.032C237.802 314.566 240.257 309.962 241.671 307.575C243.637 304.255 246.482 302.131 249.331 299.627C252.402 296.927 254.36 293.315 256.255 289.758C257.415 287.578 258.536 285.351 259.715 283.162C258.483 282.079 258.088 279.929 257.671 278.434L257.633 278.3C256.943 275.907 256.394 273.451 256.048 270.984C255.715 268.613 255.576 266.275 255.664 263.89L255.689 263.283M261.445 270.214C261.173 269.843 261.623 269.423 261.997 269.501C264.268 269.967 266.488 271.334 268.527 272.439L268.744 272.556C270.372 273.428 272.009 274.497 272.863 276.191C273.792 278.032 273.716 280.153 273.589 282.155L273.577 282.342C273.422 284.742 273.397 287.235 272.886 289.592C272.625 290.798 271.525 291.138 270.586 290.853C269.468 294.362 266.327 296.947 264.033 299.716C261.108 303.246 261.658 308.012 261.964 312.264C262.088 313.985 259.933 314.475 258.824 313.556L256.267 311.445C255.841 311.093 255.416 310.74 254.992 310.386C254.629 310.082 254.269 309.776 253.912 309.466L253.379 308.998C253.142 308.787 252.099 307.629 251.794 307.581C251.055 307.464 249.3 309.4 248.699 310.007L248.623 310.082C247.492 311.184 246.471 312.37 245.519 313.628C245.344 313.859 245.002 313.667 245.127 313.4C245.98 311.585 246.971 309.849 248.148 308.224L248.386 307.901C249.169 306.852 250.221 304.999 251.603 304.69C253.291 304.311 254.977 305.994 256.205 306.928L256.283 306.987C256.867 307.422 257.445 307.866 258.021 308.312C257.961 305.147 258.363 301.948 260.008 299.22C261.167 297.297 262.904 295.872 264.39 294.219C266.045 292.378 266.909 290.115 268.407 288.198C268.6 287.951 268.866 287.818 269.154 287.776C269.211 286.235 269.44 284.678 269.616 283.154L269.667 282.697C269.846 281.041 270.267 279.017 269.451 277.466C268.681 276.001 266.912 274.966 265.602 273.972L264.533 273.147M187.734 252.698C187.051 253.091 186.412 253.58 185.832 254.191C184.006 256.116 182.701 258.511 181.431 260.815C180.748 262.056 180.088 263.31 179.399 264.548C179.099 265.087 178.791 265.62 178.479 266.152C178.335 266.397 177.907 266.884 177.694 267.184C177.93 267.512 178.174 267.836 178.423 268.156C178.518 268.278 185.066 275.368 187.348 278.142C190.843 282.392 193.967 286.881 196.638 291.686C199.253 296.392 201.244 301.374 203.666 306.17C204.879 308.572 206.233 310.956 207.96 313.034C208.026 313.115 208.097 313.192 208.165 313.272C208.824 311.503 210.512 309.609 211.341 308.521L211.418 308.418C213.299 305.899 215.285 303.455 217.314 301.053C219.167 298.86 221.067 296.714 223.014 294.603L223.746 293.813C225.102 292.357 226.824 290.179 228.809 289.138C228.596 288.762 228.35 288.389 228.067 288.021C226.207 285.605 223.578 283.852 220.984 282.27L219.301 281.253C212.96 277.412 206.717 273.392 201.211 268.401C198.298 265.76 195.426 262.994 192.977 259.914L192.111 258.824M198.316 250.796C195.346 251.044 192.139 250.985 189.395 251.947C191.835 254.239 194.154 256.715 196.536 259.046C196.748 257.469 197.182 255.912 197.549 254.375" fill="black"/>
</g>
<g id="head/Short 5">
<path id="&#240;&#159;&#142;&#168; Background_4" fill-rule="evenodd" clip-rule="evenodd" d="M228.69 105.002C249.837 105.002 271.71 121.294 279.462 131.691C285.979 140.432 289.488 179.959 289.488 206.671C289.488 212.258 292.59 222.789 291.685 228.133C288.368 247.715 273.916 264.138 245.314 264.138C216.712 264.138 196.204 252.87 174.945 222.614C164.629 222.614 159.63 214.751 159.558 202.343C159.485 189.935 169.514 185.421 169.514 185.421C169.514 185.421 165.938 136.453 174.945 123.704C183.951 110.955 207.543 105.002 228.69 105.002Z" fill="white"/>
<path id="&#240;&#159;&#150;&#141; Ink_6" fill-rule="evenodd" clip-rule="evenodd" d="M219.791 98.078C233.143 96.7342 246.226 97.8633 259.384 100.199C260.39 100.381 260.96 101.036 261.172 101.824C267.369 102.106 273.574 102.558 279.764 102.894C282.01 103.017 283.283 105.223 282.259 107.214C282.055 107.61 281.842 107.995 281.626 108.38L281.897 108.291C283.759 107.698 285.771 107.405 287.585 108.347C289.894 109.547 290.799 112.193 290.289 114.629C290.158 115.251 289.939 115.847 289.689 116.428C290.196 116.395 290.706 116.406 291.213 116.473C293.909 116.828 295.913 118.883 296.054 121.618C296.263 125.749 293.585 129.94 290.431 132.897C290.888 133.834 291.064 134.937 290.873 136.055C290.494 138.265 288.856 139.589 286.957 140.452C287.749 142.951 288.123 145.564 287.902 148.234C287.828 149.126 287.044 149.862 286.216 150.042C289.302 158.488 290.864 167.555 291.987 176.39C292.788 182.676 293.183 188.999 293.231 195.333C293.254 198.192 293.207 201.055 293.086 203.915L293.038 204.987C292.889 208.078 292.881 211.324 292.323 214.383C294.229 217.606 294.997 221.609 295.321 225.221C295.723 229.693 295.086 234.305 293.667 238.559C288.311 254.632 272.148 264.775 255.913 267.411C240.886 269.851 223.497 266.567 214.715 253C214.577 252.785 214.871 252.608 215.042 252.748C221.325 257.827 228.614 260.092 236.532 261.196C250.223 263.099 265.611 259.87 276.598 251.312C281.872 247.203 285.674 241.221 287.347 234.783C288.2 231.492 288.494 228.06 288.158 224.674C287.816 221.238 286.285 218.306 285.321 215.06C284.997 213.964 285.339 212.946 286.014 212.221C286.203 209.585 286.65 206.927 286.821 204.299C287.011 201.311 287.127 198.324 287.168 195.333C287.246 189.128 286.986 182.913 286.46 176.735C285.5 165.422 282.948 154.383 281.451 143.166C280.897 143.66 280.102 143.863 279.269 143.432L279.183 143.385L278.729 143.126C278.703 143.126 278.673 143.13 278.646 143.133C275.537 143.433 272.312 143.004 269.332 142.082C266.215 141.12 263.321 139.639 260.736 137.666C260.245 140.142 260.04 142.644 260.036 145.169C260.033 146.746 258.353 147.564 257.02 146.891C251.109 143.907 245.463 140.468 240.104 136.603C239.477 139.791 238.852 142.978 238.222 146.168C237.981 147.398 236.405 147.894 235.396 147.309C231.381 144.988 227.914 141.949 225.091 138.335C224.527 139.407 223.962 140.478 223.393 141.547L222.536 143.148C221.69 144.721 220.558 146.461 218.707 146.964C216.748 147.497 215.113 146.235 214.454 144.473C214.253 143.926 214.067 143.362 213.895 142.796C212.226 146.583 210.342 150.285 208.212 153.817C205.016 159.114 201.18 163.834 197.355 168.676C196.194 170.146 194.205 168.742 194.045 167.314C193.951 166.473 193.873 165.629 193.806 164.789C191.577 169.259 189.252 173.688 186.718 177.988L187.081 179.401C188.126 183.576 188.994 187.78 189.938 191.977C190.243 193.331 189.519 195.267 187.927 195.498C186.025 195.773 184.226 196.739 182.278 196.075C180.154 195.35 179.735 193.525 178.732 191.796C178.532 191.451 178.299 191.135 178.049 190.834L177.985 190.916C177.829 191.12 177.456 190.898 177.549 190.665L177.659 190.395C176.797 189.487 175.766 188.728 174.818 187.913C172.566 187.536 170.032 187.949 168.48 188.858C164.946 190.931 163.322 195.203 163.289 199.131C163.248 203.729 164.681 208.896 167.102 212.828C168.168 214.557 169.628 216.118 171.557 216.885C173.471 217.647 175.546 217.411 177.494 218.128C178.782 218.606 179.575 220.028 178.797 221.316C178.745 221.405 178.685 221.486 178.629 221.571L179.208 222.336C179.607 222.865 180.022 223.432 180.41 224.022C181.4 225.155 182.443 226.247 183.453 227.361C185.318 229.415 187.128 231.526 188.964 233.609C190.696 235.576 192.529 237.422 194.417 239.24C196.201 240.962 198.428 242.409 200.067 244.245C201.66 246.037 202.093 249.165 199.471 250.201C196.57 251.351 194.001 248.656 192.049 246.86L191.966 246.784C188.387 243.51 185.154 239.768 182.587 235.648C180.044 237.369 176.365 237.533 173.833 235.813C172.501 234.908 171.478 233.387 170.982 231.732C170.513 231.837 170.045 231.898 169.588 231.891C169.353 232.026 169.118 232.158 168.879 232.281C166.991 233.258 164.671 232.821 163.807 230.744C163.02 228.859 163.831 226.717 164.539 224.9L164.686 224.525C165.088 223.489 165.531 222.36 166.082 221.298C164.548 220.15 163.236 218.724 162.127 217.103C158.399 211.643 156.537 203.658 157.36 197.143C157.855 193.212 159.713 189.14 162.756 186.489L162.645 186.2C161.792 184.05 161.017 181.891 160.514 179.619C159.926 176.961 159.639 174.207 159.378 171.5C158.827 165.785 158.976 159.94 159.71 154.246C161.088 143.529 164.581 133.009 170.782 124.091C169.024 121.999 167.631 119.537 168.357 116.706C168.689 115.406 169.445 114.174 170.585 113.429C171.214 113.019 171.963 112.956 172.592 112.615L172.782 112.512C173.058 112.352 172.847 112.369 172.682 111.623C172.03 108.647 172.57 105.771 175.866 104.782C178.968 103.853 181.903 105.826 183.739 108.177C188.544 104.789 194.875 103.017 200.443 101.51C206.774 99.803 213.269 98.7373 219.791 98.078ZM167.896 197.917C167.873 195.492 170.186 193.996 172.462 194.393C173.99 194.657 175.265 195.564 176.462 196.501L177.046 196.96C178.504 198.097 180.177 199.323 181.046 200.934C182.32 203.31 179.628 206.508 177.114 204.843C175.389 203.694 174.284 201.853 173.153 200.144L173.036 199.967C172.522 199.201 172.071 198.387 171.367 197.772L171.215 197.64C170.983 197.444 170.735 197.265 170.436 197.18C169.859 197.015 168.791 197.246 168.537 197.928L168.514 197.998C168.421 198.343 167.9 198.268 167.896 197.917Z" fill="black"/>
</g>
<g id="face/Driven">
<path id="&#240;&#159;&#150;&#141; Ink_7" fill-rule="evenodd" clip-rule="evenodd" d="M264.381 231.478C261.853 232.465 258.867 232.699 256.258 231.857C253.763 231.052 251.498 229.261 250.127 227.008C248.906 225.002 248.396 222.621 249.118 220.247C249.152 220.134 249.264 220.061 249.372 220.033C249.963 220.567 250.327 221.097 250.692 221.625C251.306 222.515 251.922 223.396 252.767 224.157C253.997 225.264 255.653 226.163 257.298 226.46C258.907 226.751 260.555 226.494 261.997 225.728C262.873 225.262 263.582 224.64 264.284 224.015C265.048 223.334 265.8 222.643 266.853 222.259C267.696 221.95 268.583 222.21 269.263 222.726C269.995 223.28 270.521 224.147 270.492 225.053C270.447 226.458 269.828 227.629 268.931 228.596C267.717 229.903 266.002 230.844 264.381 231.478ZM261.38 196.477C264.192 198.176 268.478 202.138 265.452 206.351C261.891 210.065 256.763 205.806 254.237 203.88C251.894 202.388 249.261 206.227 251.435 207.969C269.693 221.405 277.103 196.921 262.802 194.479C261.228 194.21 260.643 195.951 261.38 196.477ZM231.799 172.934C235.632 172.752 239.01 174.463 242.663 175.24C246.039 175.959 249.364 175.527 252.647 174.613C257.975 173.129 260.178 181.236 254.923 182.816C251.095 183.966 247.066 184.046 243.138 183.453C239.65 182.926 236.725 181.238 233.399 180.255C230.545 179.412 227.187 179.762 224.172 180.159L223.002 180.316C221.263 180.549 219.514 180.782 217.792 181.12C216.298 181.414 214.806 181.951 213.281 182.013C213.108 182.021 212.961 181.797 213.07 181.648C214.842 179.23 218.256 177.323 220.972 176.05L221.157 175.965C224.509 174.411 228.066 173.111 231.799 172.934ZM230.395 190.76L230.394 190.677C230.399 188.316 231.782 182.926 235.201 182.926C237.337 182.926 238.634 186.594 238.859 190.376L238.866 190.53C238.966 192.881 238.317 198.019 235.201 198.019C232.053 198.019 230.427 193.152 230.395 190.76ZM280.731 190.76L280.732 190.677C280.726 188.316 279.343 182.926 275.924 182.926C273.842 182.926 272.557 186.413 272.286 190.092L272.267 190.376C272.132 192.647 272.739 198.019 275.924 198.019C279.072 198.019 280.699 193.152 280.731 190.76ZM280.679 170.059L280.923 170.064C284.919 170.202 289.028 172.554 290.095 176.506C290.15 176.711 289.896 176.849 289.745 176.708C286.46 173.651 282.041 176.572 278.752 178.104L277.543 178.658C273.302 180.62 268.479 182.925 263.77 181.464C261.533 180.77 260.113 178.486 260.751 176.179C261.319 174.126 263.811 172.401 265.97 173.142L266.068 173.177C267.822 173.844 269.979 173.168 271.791 172.502L273.279 171.947C275.672 171.044 278.076 170.034 280.679 170.059Z" fill="black"/>
</g>
</g>
</g>
</svg>
