<svg width="79" height="67" viewBox="0 0 79 67" fill="none" xmlns="http://www.w3.org/2000/svg">
<path d="M62.5416 18.7991C62.5416 30.4236 50.1978 38.2849 50.1978 47.4583H43.6408C43.6441 41.6545 46.9193 36.7774 50.1188 32.0679C53.1241 27.6431 55.9583 23.4612 55.9583 18.7991C55.9583 10.1226 47.6698 5.58333 39.4868 5.58333C31.3135 5.58333 23.0416 10.1226 23.0416 18.7991C23.0416 23.4612 25.879 27.6431 28.881 32.0679C32.0772 36.7774 35.3524 41.6545 35.3557 47.4583H28.802C28.802 38.2849 16.4583 30.4208 16.4583 18.7991C16.4583 6.67488 27.9725 0 39.4868 0C51.0142 0 62.5416 6.68325 62.5416 18.7991ZM49.3749 51.6458C49.3749 52.4163 48.6376 53.0417 47.7291 53.0417H31.2708C30.3623 53.0417 29.6249 52.4163 29.6249 51.6458C29.6249 50.8753 30.3623 50.25 31.2708 50.25H47.7291C48.6376 50.25 49.3749 50.8753 49.3749 51.6458ZM49.3749 57.2292C49.3749 57.9997 48.6376 58.625 47.7291 58.625H31.2708C30.3623 58.625 29.6249 57.9997 29.6249 57.2292C29.6249 56.4587 30.3623 55.8333 31.2708 55.8333H47.7291C48.6376 55.8333 49.3749 56.4587 49.3749 57.2292ZM43.7758 66.048C43.1504 66.651 42.2452 67 41.2972 67H37.6994C36.7514 67 35.8495 66.651 35.224 66.048L30.4478 61.4167H48.552L43.7758 66.048ZM33.226 13.9193C31.386 13.9193 29.8915 15.1867 29.8915 16.7472C29.8915 18.3105 31.386 19.5752 33.226 19.5752C35.0693 19.5752 36.5605 18.3078 36.5605 16.7472C36.5605 15.1867 35.066 13.9193 33.226 13.9193ZM45.7738 13.9193C43.9305 13.9193 42.4394 15.1867 42.4394 16.7472C42.4394 18.3105 43.9338 19.5752 45.7738 19.5752C47.6139 19.5752 49.1083 18.3078 49.1083 16.7472C49.1083 15.1867 47.6172 13.9193 45.7738 13.9193ZM50.076 23.2992C47.1728 25.245 43.9799 26.4455 39.4999 26.4455C35.02 26.4455 31.827 25.245 28.9238 23.302L27.9791 24.1005C30.1417 26.9005 34.1213 29.9099 39.4999 29.9099C44.8785 29.9099 48.8581 26.9033 51.0208 24.1005L50.076 23.2992Z" fill="black"/>
</svg>
